<?xml version="1.0" encoding="UTF-8" standalone="no"?>
<!DOCTYPE svg PUBLIC "-//W3C//DTD SVG 1.1//EN"
 "http://www.w3.org/Graphics/SVG/1.1/DTD/svg11.dtd">
<!-- Generated by graphviz version 2.26.3 (20100126.1600)
 -->
<!-- Title: errors_and_logging Pages: 1 -->
<svg width="784pt" height="490pt"
 viewBox="0.00 0.00 784.00 490.00" xmlns="http://www.w3.org/2000/svg" xmlns:xlink="http://www.w3.org/1999/xlink">
<g id="graph1" class="graph" transform="scale(1 1) rotate(0) translate(4 486)">
<title>errors_and_logging</title>
<polygon fill="white" stroke="white" points="-4,5 -4,-486 781,-486 781,5 -4,5"/>
<!-- Check Functions -->
<g id="node1" class="node"><title>Check Functions</title>
<ellipse fill="#ffdddd" stroke="black" cx="215" cy="-463" rx="91.2168" ry="18.3848"/>
<text text-anchor="middle" x="215" y="-459.4" font-family="sans" font-size="14.00">Check Functions</text>
</g>
<!-- Error Stack -->
<g id="node5" class="node"><title>Error Stack</title>
<ellipse fill="none" stroke="black" cx="215" cy="-389" rx="67.1751" ry="18.3848"/>
<text text-anchor="middle" x="215" y="-385.4" font-family="sans" font-size="14.00">Error Stack</text>
</g>
<!-- Check Functions&#45;&gt;Error Stack -->
<g id="edge2" class="edge"><title>Check Functions&#45;&gt;Error Stack</title>
<path fill="none" stroke="black" d="M215,-444.327C215,-436.264 215,-426.648 215,-417.711"/>
<polygon fill="black" stroke="black" points="218.5,-417.667 215,-407.667 211.5,-417.667 218.5,-417.667"/>
</g>
<!-- Log Error (Explicit) -->
<g id="node2" class="node"><title>Log Error (Explicit)</title>
<ellipse fill="#ffdddd" stroke="black" cx="103" cy="-315" rx="103.238" ry="18.3848"/>
<text text-anchor="middle" x="103" y="-311.4" font-family="sans" font-size="14.00">Log Error (Explicit)</text>
</g>
<!-- Error Report Expander -->
<g id="node10" class="node"><title>Error Report Expander</title>
<ellipse fill="none" stroke="black" cx="327" cy="-241" rx="121.122" ry="18.3848"/>
<text text-anchor="middle" x="327" y="-237.4" font-family="sans" font-size="14.00">Error Report Expander</text>
</g>
<!-- Log Error (Explicit)&#45;&gt;Error Report Expander -->
<g id="edge8" class="edge"><title>Log Error (Explicit)&#45;&gt;Error Report Expander</title>
<path fill="none" stroke="black" d="M152.435,-298.669C185.999,-287.581 230.599,-272.847 266.317,-261.047"/>
<polygon fill="black" stroke="black" points="267.741,-264.263 276.139,-257.802 265.545,-257.616 267.741,-264.263"/>
</g>
<!-- Log Adhoc -->
<g id="node3" class="node"><title>Log Adhoc</title>
<ellipse fill="#ffdddd" stroke="black" cx="528" cy="-241" rx="62.2254" ry="18.3848"/>
<text text-anchor="middle" x="528" y="-237.4" font-family="sans" font-size="14.00">Log Adhoc</text>
</g>
<!-- Logger -->
<g id="node15" class="node"><title>Logger</title>
<ellipse fill="none" stroke="black" cx="427" cy="-167" rx="44.7575" ry="18.3848"/>
<text text-anchor="middle" x="427" y="-163.4" font-family="sans" font-size="14.00">Logger</text>
</g>
<!-- Log Adhoc&#45;&gt;Logger -->
<g id="edge16" class="edge"><title>Log Adhoc&#45;&gt;Logger</title>
<path fill="none" stroke="black" d="M504.575,-223.837C490.512,-213.534 472.473,-200.317 457.33,-189.222"/>
<polygon fill="black" stroke="black" points="459.394,-186.395 449.259,-183.308 455.257,-192.042 459.394,-186.395"/>
</g>
<!-- Error Stack&#45;&gt;Log Error (Explicit) -->
<g id="edge4" class="edge"><title>Error Stack&#45;&gt;Log Error (Explicit)</title>
<path fill="none" stroke="black" d="M189.023,-371.837C174.193,-362.038 155.374,-349.604 139.122,-338.866"/>
<polygon fill="black" stroke="black" points="140.671,-335.695 130.398,-333.102 136.812,-341.535 140.671,-335.695"/>
</g>
<!-- Log Error (Implicit) -->
<g id="node8" class="node"><title>Log Error (Implicit)</title>
<ellipse fill="none" stroke="black" cx="327" cy="-315" rx="103.238" ry="18.3848"/>
<text text-anchor="middle" x="327" y="-311.4" font-family="sans" font-size="14.00">Log Error (Implicit)</text>
</g>
<!-- Error Stack&#45;&gt;Log Error (Implicit) -->
<g id="edge6" class="edge"><title>Error Stack&#45;&gt;Log Error (Implicit)</title>
<path fill="none" stroke="black" d="M240.977,-371.837C255.807,-362.038 274.626,-349.604 290.878,-338.866"/>
<polygon fill="black" stroke="black" points="293.188,-341.535 299.602,-333.102 289.329,-335.695 293.188,-341.535"/>
</g>
<!-- Log Error (Implicit)&#45;&gt;Error Report Expander -->
<g id="edge10" class="edge"><title>Log Error (Implicit)&#45;&gt;Error Report Expander</title>
<path fill="none" stroke="black" d="M327,-296.327C327,-288.264 327,-278.648 327,-269.711"/>
<polygon fill="black" stroke="black" points="330.5,-269.667 327,-259.667 323.5,-269.667 330.5,-269.667"/>
</g>
<!-- Error Report Expander&#45;&gt;Logger -->
<g id="edge14" class="edge"><title>Error Report Expander&#45;&gt;Logger</title>
<path fill="none" stroke="black" d="M351.719,-222.708C365.353,-212.618 382.391,-200.011 396.808,-189.342"/>
<polygon fill="black" stroke="black" points="398.992,-192.08 404.948,-183.318 394.828,-186.453 398.992,-192.08"/>
</g>
<!-- Error Class Definitions -->
<g id="node12" class="node"><title>Error Class Definitions</title>
<ellipse fill="none" stroke="black" cx="568" cy="-315" rx="120.208" ry="18.3848"/>
<text text-anchor="middle" x="568" y="-311.4" font-family="sans" font-size="14.00">Error Class Definitions</text>
</g>
<!-- Error Class Definitions&#45;&gt;Error Report Expander -->
<g id="edge12" class="edge"><title>Error Class Definitions&#45;&gt;Error Report Expander</title>
<path fill="none" stroke="black" d="M513.915,-298.393C477.607,-287.245 429.601,-272.504 391.332,-260.753"/>
<polygon fill="black" stroke="black" points="391.908,-257.269 381.321,-257.679 389.853,-263.961 391.908,-257.269"/>
</g>
<!-- General Log Report Expander -->
<g id="node18" class="node"><title>General Log Report Expander</title>
<ellipse fill="none" stroke="black" cx="530" cy="-93" rx="155.771" ry="18.3848"/>
<text text-anchor="middle" x="530" y="-89.4" font-family="sans" font-size="14.00">General Log Report Expander</text>
</g>
<!-- Logger&#45;&gt;General Log Report Expander -->
<g id="edge18" class="edge"><title>Logger&#45;&gt;General Log Report Expander</title>
<path fill="none" stroke="black" d="M449.604,-150.76C463.294,-140.924 481.013,-128.195 496.331,-117.19"/>
<polygon fill="black" stroke="black" points="498.474,-119.96 504.553,-111.282 494.389,-114.275 498.474,-119.96"/>
</g>
<!-- Log Dispatch Queue -->
<g id="node22" class="node"><title>Log Dispatch Queue</title>
<ellipse fill="none" stroke="black" cx="530" cy="-19" rx="109.81" ry="18.3848"/>
<text text-anchor="middle" x="530" y="-15.4" font-family="sans" font-size="14.00">Log Dispatch Queue</text>
</g>
<!-- General Log Report Expander&#45;&gt;Log Dispatch Queue -->
<g id="edge22" class="edge"><title>General Log Report Expander&#45;&gt;Log Dispatch Queue</title>
<path fill="none" stroke="black" d="M530,-74.3267C530,-66.2639 530,-56.6477 530,-47.7115"/>
<polygon fill="black" stroke="black" points="533.5,-47.6673 530,-37.6674 526.5,-47.6674 533.5,-47.6673"/>
</g>
<!-- Logger Common Constants -->
<g id="node19" class="node"><title>Logger Common Constants</title>
<ellipse fill="none" stroke="black" cx="633" cy="-167" rx="143.043" ry="18.3848"/>
<text text-anchor="middle" x="633" y="-163.4" font-family="sans" font-size="14.00">Logger Common Constants</text>
</g>
<!-- Logger Common Constants&#45;&gt;General Log Report Expander -->
<g id="edge20" class="edge"><title>Logger Common Constants&#45;&gt;General Log Report Expander</title>
<path fill="none" stroke="black" d="M607.539,-148.708C594.293,-139.191 577.927,-127.433 563.65,-117.176"/>
<polygon fill="black" stroke="black" points="565.688,-114.33 555.525,-111.338 561.604,-120.015 565.688,-114.33"/>
</g>
</g>
</svg>
