<?xml version="1.0" encoding="UTF-8" standalone="no"?>
<!-- Created with Inkscape (http://www.inkscape.org/) -->

<svg
   xmlns:dc="http://purl.org/dc/elements/1.1/"
   xmlns:cc="http://creativecommons.org/ns#"
   xmlns:rdf="http://www.w3.org/1999/02/22-rdf-syntax-ns#"
   xmlns:svg="http://www.w3.org/2000/svg"
   xmlns="http://www.w3.org/2000/svg"
   xmlns:xlink="http://www.w3.org/1999/xlink"
   xmlns:sodipodi="http://sodipodi.sourceforge.net/DTD/sodipodi-0.dtd"
   xmlns:inkscape="http://www.inkscape.org/namespaces/inkscape"
   width="147.80707"
   height="81.871101"
   id="svg2"
   version="1.1"
   inkscape:version="0.48.2 r9819"
   sodipodi:docname="gx.svg">
  <defs
     id="defs4">
    <linearGradient
       id="linearGradient4302">
      <stop
         style="stop-color:#4c4c4c;stop-opacity:1;"
         offset="0"
         id="stop4304" />
      <stop
         style="stop-color:#838383;stop-opacity:1;"
         offset="1"
         id="stop4306" />
    </linearGradient>
    <linearGradient
       id="linearGradient3790">
      <stop
         style="stop-color:#d84600;stop-opacity:1;"
         offset="0"
         id="stop3792" />
      <stop
         style="stop-color:#6c6c6c;stop-opacity:1;"
         offset="1"
         id="stop3794" />
    </linearGradient>
    <linearGradient
       inkscape:collect="always"
       xlink:href="#linearGradient3790"
       id="linearGradient3796"
       x1="84.876656"
       y1="311.54999"
       x2="176.12335"
       y2="311.54999"
       gradientUnits="userSpaceOnUse" />
    <linearGradient
       inkscape:collect="always"
       xlink:href="#linearGradient3790"
       id="linearGradient3798"
       gradientUnits="userSpaceOnUse"
       x1="82.876656"
       y1="276.54999"
       x2="156.12335"
       y2="381.54999" />
    <linearGradient
       inkscape:collect="always"
       xlink:href="#linearGradient3790"
       id="linearGradient3800"
       gradientUnits="userSpaceOnUse"
       x1="87.876656"
       y1="269.54999"
       x2="155.12335"
       y2="353.54999" />
    <linearGradient
       inkscape:collect="always"
       xlink:href="#linearGradient3790"
       id="linearGradient4019"
       gradientUnits="userSpaceOnUse"
       x1="84.876656"
       y1="311.54999"
       x2="176.12335"
       y2="311.54999" />
    <linearGradient
       inkscape:collect="always"
       xlink:href="#linearGradient3790"
       id="linearGradient4021"
       gradientUnits="userSpaceOnUse"
       x1="87.876656"
       y1="269.54999"
       x2="155.12335"
       y2="353.54999" />
    <linearGradient
       inkscape:collect="always"
       xlink:href="#linearGradient3790"
       id="linearGradient4023"
       gradientUnits="userSpaceOnUse"
       x1="82.876656"
       y1="276.54999"
       x2="156.12335"
       y2="381.54999" />
    <linearGradient
       inkscape:collect="always"
       xlink:href="#linearGradient3790"
       id="linearGradient4054"
       gradientUnits="userSpaceOnUse"
       x1="84.876656"
       y1="311.54999"
       x2="176.12335"
       y2="311.54999" />
    <linearGradient
       inkscape:collect="always"
       xlink:href="#linearGradient3790"
       id="linearGradient4056"
       gradientUnits="userSpaceOnUse"
       x1="87.876656"
       y1="269.54999"
       x2="155.12335"
       y2="353.54999" />
    <linearGradient
       inkscape:collect="always"
       xlink:href="#linearGradient3790"
       id="linearGradient4058"
       gradientUnits="userSpaceOnUse"
       x1="82.876656"
       y1="276.54999"
       x2="156.12335"
       y2="381.54999" />
    <linearGradient
       inkscape:collect="always"
       xlink:href="#linearGradient3790"
       id="linearGradient4088"
       gradientUnits="userSpaceOnUse"
       x1="84.876656"
       y1="311.54999"
       x2="176.12335"
       y2="311.54999" />
    <linearGradient
       inkscape:collect="always"
       xlink:href="#linearGradient3790"
       id="linearGradient4090"
       gradientUnits="userSpaceOnUse"
       x1="87.876656"
       y1="269.54999"
       x2="155.12335"
       y2="353.54999" />
    <linearGradient
       inkscape:collect="always"
       xlink:href="#linearGradient3790"
       id="linearGradient4092"
       gradientUnits="userSpaceOnUse"
       x1="82.876656"
       y1="276.54999"
       x2="156.12335"
       y2="381.54999" />
    <linearGradient
       inkscape:collect="always"
       xlink:href="#linearGradient3790"
       id="linearGradient4121"
       gradientUnits="userSpaceOnUse"
       x1="84.876656"
       y1="311.54999"
       x2="176.12335"
       y2="311.54999" />
    <linearGradient
       inkscape:collect="always"
       xlink:href="#linearGradient3790"
       id="linearGradient4123"
       gradientUnits="userSpaceOnUse"
       x1="87.876656"
       y1="269.54999"
       x2="155.12335"
       y2="353.54999" />
    <linearGradient
       inkscape:collect="always"
       xlink:href="#linearGradient3790"
       id="linearGradient4125"
       gradientUnits="userSpaceOnUse"
       x1="82.876656"
       y1="276.54999"
       x2="156.12335"
       y2="381.54999" />
    <linearGradient
       inkscape:collect="always"
       xlink:href="#linearGradient3790"
       id="linearGradient4153"
       gradientUnits="userSpaceOnUse"
       x1="84.876656"
       y1="311.54999"
       x2="176.12335"
       y2="311.54999" />
    <linearGradient
       inkscape:collect="always"
       xlink:href="#linearGradient3790"
       id="linearGradient4155"
       gradientUnits="userSpaceOnUse"
       x1="87.876656"
       y1="269.54999"
       x2="155.12335"
       y2="353.54999" />
    <linearGradient
       inkscape:collect="always"
       xlink:href="#linearGradient3790"
       id="linearGradient4157"
       gradientUnits="userSpaceOnUse"
       x1="82.876656"
       y1="276.54999"
       x2="156.12335"
       y2="381.54999" />
    <linearGradient
       inkscape:collect="always"
       xlink:href="#linearGradient3790"
       id="linearGradient4184"
       gradientUnits="userSpaceOnUse"
       x1="84.876656"
       y1="311.54999"
       x2="176.12335"
       y2="311.54999" />
    <linearGradient
       inkscape:collect="always"
       xlink:href="#linearGradient3790"
       id="linearGradient4186"
       gradientUnits="userSpaceOnUse"
       x1="87.876656"
       y1="269.54999"
       x2="155.12335"
       y2="353.54999" />
    <linearGradient
       inkscape:collect="always"
       xlink:href="#linearGradient3790"
       id="linearGradient4188"
       gradientUnits="userSpaceOnUse"
       x1="82.876656"
       y1="276.54999"
       x2="156.12335"
       y2="381.54999" />
    <linearGradient
       inkscape:collect="always"
       xlink:href="#linearGradient3790"
       id="linearGradient4212"
       gradientUnits="userSpaceOnUse"
       x1="82.876656"
       y1="276.54999"
       x2="156.12335"
       y2="381.54999" />
    <linearGradient
       inkscape:collect="always"
       xlink:href="#linearGradient3790"
       id="linearGradient4215"
       gradientUnits="userSpaceOnUse"
       x1="87.876656"
       y1="269.54999"
       x2="155.12335"
       y2="353.54999" />
    <linearGradient
       inkscape:collect="always"
       xlink:href="#linearGradient3790"
       id="linearGradient4218"
       gradientUnits="userSpaceOnUse"
       x1="84.876656"
       y1="311.54999"
       x2="176.12335"
       y2="311.54999" />
    <linearGradient
       inkscape:collect="always"
       xlink:href="#linearGradient3790"
       id="linearGradient4265"
       gradientUnits="userSpaceOnUse"
       x1="84.876656"
       y1="311.54999"
       x2="176.12335"
       y2="311.54999" />
    <linearGradient
       inkscape:collect="always"
       xlink:href="#linearGradient3790"
       id="linearGradient4267"
       gradientUnits="userSpaceOnUse"
       x1="87.876656"
       y1="269.54999"
       x2="155.12335"
       y2="353.54999" />
    <linearGradient
       inkscape:collect="always"
       xlink:href="#linearGradient3790"
       id="linearGradient4269"
       gradientUnits="userSpaceOnUse"
       x1="82.876656"
       y1="276.54999"
       x2="156.12335"
       y2="381.54999" />
    <linearGradient
       inkscape:collect="always"
       xlink:href="#linearGradient3790"
       id="linearGradient4300"
       gradientUnits="userSpaceOnUse"
       x1="84.876656"
       y1="311.54999"
       x2="176.12335"
       y2="311.54999" />
    <linearGradient
       inkscape:collect="always"
       xlink:href="#linearGradient4302"
       id="linearGradient4308"
       x1="126.76983"
       y1="311.28815"
       x2="176.12335"
       y2="311.28815"
       gradientUnits="userSpaceOnUse" />
    <linearGradient
       inkscape:collect="always"
       xlink:href="#linearGradient4302"
       id="linearGradient4310"
       x1="126.76983"
       y1="311.28815"
       x2="176.12335"
       y2="311.28815"
       gradientUnits="userSpaceOnUse" />
    <linearGradient
       inkscape:collect="always"
       xlink:href="#linearGradient4302"
       id="linearGradient4312"
       x1="84.876656"
       y1="312.03586"
       x2="137.09076"
       y2="312.03586"
       gradientUnits="userSpaceOnUse" />
    <linearGradient
       inkscape:collect="always"
       xlink:href="#linearGradient4302"
       id="linearGradient4319"
       gradientUnits="userSpaceOnUse"
       x1="116.76983"
       y1="266.28815"
       x2="172.12335"
       y2="345.28815" />
    <linearGradient
       inkscape:collect="always"
       xlink:href="#linearGradient4302"
       id="linearGradient4321"
       gradientUnits="userSpaceOnUse"
       x1="86.876656"
       y1="282.03586"
       x2="135.09076"
       y2="373.03586" />
    <linearGradient
       inkscape:collect="always"
       xlink:href="#linearGradient4302"
       id="linearGradient4323"
       gradientUnits="userSpaceOnUse"
       x1="124.76983"
       y1="278.28815"
       x2="170.12335"
       y2="325.28815" />
  </defs>
  <sodipodi:namedview
     id="base"
     pagecolor="#ffffff"
     bordercolor="#666666"
     borderopacity="1.0"
     inkscape:pageopacity="0.0"
     inkscape:pageshadow="2"
     inkscape:zoom="1"
     inkscape:cx="33.270532"
     inkscape:cy="58.971111"
     inkscape:document-units="px"
     inkscape:current-layer="g4314"
     showgrid="false"
     inkscape:window-width="1440"
     inkscape:window-height="852"
     inkscape:window-x="0"
     inkscape:window-y="0"
     inkscape:window-maximized="1"
     fit-margin-top="5"
     fit-margin-left="5"
     fit-margin-right="5"
     fit-margin-bottom="5"
     showborder="false" />
  <metadata
     id="metadata7">
    <rdf:RDF>
      <cc:Work
         rdf:about="">
        <dc:format>image/svg+xml</dc:format>
        <dc:type
           rdf:resource="http://purl.org/dc/dcmitype/StillImage" />
        <dc:title />
      </cc:Work>
    </rdf:RDF>
  </metadata>
  <g
     inkscape:label="Layer 1"
     inkscape:groupmode="layer"
     id="layer1"
     transform="translate(-79.876655,-270.61443)">
    <g
       id="g3769"
       style="stroke:url(#linearGradient4300);stroke-opacity:1" />
    <g
       id="g4314">
      <path
         style="fill:none;stroke:url(#linearGradient4321);stroke-width:9.55500031;stroke-linecap:round;stroke-linejoin:round;stroke-miterlimit:4;stroke-opacity:1;stroke-dasharray:none"
         d="m 120.67323,293.29059 -9.44704,-11.92689 -21.572035,30.44811 22.256925,30.89622 20.40218,-31.94355 -14.467,0"
         id="path2991"
         inkscape:connector-curvature="0"
         sodipodi:nodetypes="cccccc" />
      <path
         style="fill:none;stroke:url(#linearGradient4323);stroke-width:9.55500031;stroke-linecap:round;stroke-linejoin:round;stroke-miterlimit:4;stroke-opacity:1;stroke-dasharray:none"
         d="m 131.54733,342.18436 39.79852,-61.79243"
         id="path2993"
         inkscape:connector-curvature="0" />
      <path
         inkscape:connector-curvature="0"
         id="path2995"
         d="M 171.34585,342.18436 131.54733,280.39193"
         style="fill:none;stroke:url(#linearGradient4319);stroke-width:9.55500031;stroke-linecap:round;stroke-linejoin:round;stroke-miterlimit:4;stroke-opacity:1;stroke-dasharray:none" />
    </g>
    <path
       style="font-size:14.62205696px;font-style:normal;font-variant:normal;font-weight:normal;font-stretch:normal;text-align:start;line-height:100%;letter-spacing:0px;word-spacing:0px;writing-mode:lr-tb;text-anchor:start;fill:#ff9223;fill-opacity:1;stroke:none;font-family:Aldrich;-inkscape-font-specification:Aldrich"
       inkscape:connector-curvature="0"
       d="m 178.20312,300.68131 c 0,-0.14084 0.0258,-0.27309 0.0773,-0.39676 0.055,-0.12366 0.1271,-0.23015 0.21641,-0.31947 0.0927,-0.0928 0.20096,-0.16488 0.32463,-0.21642 0.12366,-0.0549 0.2542,-0.0824 0.3916,-0.0824 l 1.81892,0 c 0.13397,10e-6 0.26107,0.0258 0.3813,0.0773 0.12023,0.0481 0.225,0.1168 0.31432,0.2061 0.0927,0.0859 0.1666,0.18894 0.22156,0.30916 0.0584,0.11681 0.0893,0.24219 0.0928,0.37616 l 0,-0.96872 1.01508,0 0,6.68825 c 0,0.14084 -0.0275,0.27309 -0.0824,0.39676 -0.0515,0.12366 -0.12367,0.23016 -0.21642,0.31947 -0.0893,0.0928 -0.1958,0.16488 -0.31947,0.21641 -0.12367,0.0549 -0.25592,0.0824 -0.39675,0.0824 l -3.205,0 0,-1.01509 3.205,0 0,-1.41185 -2.82886,0 c -0.1374,0 -0.26794,-0.0258 -0.3916,-0.0773 -0.12367,-0.0549 -0.23188,-0.1271 -0.32463,-0.21641 -0.0893,-0.0928 -0.16145,-0.20096 -0.21641,-0.32462 -0.0515,-0.12367 -0.0773,-0.25593 -0.0773,-0.39677 l 0,-3.24622 m 3.83879,3.24622 0,-3.24622 -2.82886,0 0,3.24622 2.82886,0"
       id="path3834" />
    <path
       style="font-size:14.62205696px;font-style:normal;font-variant:normal;font-weight:normal;font-stretch:normal;text-align:start;line-height:100%;letter-spacing:0px;word-spacing:0px;writing-mode:lr-tb;text-anchor:start;fill:#919191;fill-opacity:1;stroke:none;font-family:Aldrich;-inkscape-font-specification:Aldrich"
       inkscape:connector-curvature="0"
       d="m 189.4,302.92791 -3.63267,0 0,1.21089 3.63267,0 0,1.01509 -3.63267,0 c -0.13741,0 -0.26794,-0.0258 -0.3916,-0.0773 -0.12368,-0.055 -0.23188,-0.1271 -0.32463,-0.21641 -0.0893,-0.0928 -0.16145,-0.20096 -0.21641,-0.32463 -0.0515,-0.12366 -0.0773,-0.25591 -0.0773,-0.39675 l 0,-3.45749 c -10e-6,-0.14084 0.0258,-0.27309 0.0773,-0.39676 0.055,-0.12366 0.12709,-0.23015 0.21641,-0.31947 0.0927,-0.0928 0.20095,-0.16488 0.32463,-0.21642 0.12366,-0.0549 0.25419,-0.0824 0.3916,-0.0824 l 2.61759,0 c 0.14083,10e-6 0.27309,0.0275 0.39676,0.0824 0.12366,0.0515 0.23015,0.12367 0.31947,0.21642 0.0927,0.0893 0.16488,0.19581 0.21641,0.31947 0.055,0.12367 0.0824,0.25592 0.0824,0.39676 l 0,2.2466 m -3.63267,-2.2466 0,1.23151 2.61759,0 0,-1.23151 -2.61759,0"
       id="path3836" />
    <path
       style="font-size:14.62205696px;font-style:normal;font-variant:normal;font-weight:normal;font-stretch:normal;text-align:start;line-height:100%;letter-spacing:0px;word-spacing:0px;writing-mode:lr-tb;text-anchor:start;fill:#919191;fill-opacity:1;stroke:none;font-family:Aldrich;-inkscape-font-specification:Aldrich"
       inkscape:connector-curvature="0"
       d="m 195.93882,305.15389 -1.01508,0 0,-4.47258 -2.82886,0 0,4.47258 -1.00993,0 0,-5.48767 1.00993,0 0,0.96872 c 0.007,-0.13397 0.0378,-0.25935 0.0928,-0.37616 0.055,-0.12022 0.1271,-0.22328 0.21641,-0.30916 0.0927,-0.0893 0.19924,-0.15801 0.31947,-0.2061 0.12023,-0.0515 0.24905,-0.0773 0.38646,-0.0773 l 1.81376,0 c 0.14083,10e-6 0.27309,0.0275 0.39676,0.0824 0.12366,0.0515 0.23015,0.12367 0.31947,0.21642 0.0927,0.0893 0.16488,0.19581 0.21641,0.31947 0.055,0.12367 0.0824,0.25592 0.0824,0.39676 l 0,4.47258"
       id="path3838" />
    <path
       style="font-size:14.62205696px;font-style:normal;font-variant:normal;font-weight:normal;font-stretch:normal;text-align:start;line-height:100%;letter-spacing:0px;word-spacing:0px;writing-mode:lr-tb;text-anchor:start;fill:#919191;fill-opacity:1;stroke:none;font-family:Aldrich;-inkscape-font-specification:Aldrich"
       inkscape:connector-curvature="0"
       d="m 202.28185,302.92791 -3.63269,0 0,1.21089 3.63269,0 0,1.01509 -3.63269,0 c -0.1374,0 -0.26794,-0.0258 -0.3916,-0.0773 -0.12367,-0.055 -0.23188,-0.1271 -0.32462,-0.21641 -0.0893,-0.0928 -0.16146,-0.20096 -0.21642,-0.32463 -0.0515,-0.12366 -0.0773,-0.25591 -0.0773,-0.39675 l 0,-3.45749 c 0,-0.14084 0.0258,-0.27309 0.0773,-0.39676 0.055,-0.12366 0.1271,-0.23015 0.21642,-0.31947 0.0927,-0.0928 0.20095,-0.16488 0.32462,-0.21642 0.12366,-0.0549 0.2542,-0.0824 0.3916,-0.0824 l 2.61759,0 c 0.14084,10e-6 0.2731,0.0275 0.39676,0.0824 0.12366,0.0515 0.23015,0.12367 0.31947,0.21642 0.0927,0.0893 0.16489,0.19581 0.21642,0.31947 0.055,0.12367 0.0824,0.25592 0.0824,0.39676 l 0,2.2466 m -3.63269,-2.2466 0,1.23151 2.61759,0 0,-1.23151 -2.61759,0"
       id="path3840" />
    <path
       style="font-size:14.62205696px;font-style:normal;font-variant:normal;font-weight:normal;font-stretch:normal;text-align:start;line-height:100%;letter-spacing:0px;word-spacing:0px;writing-mode:lr-tb;text-anchor:start;fill:#919191;fill-opacity:1;stroke:none;font-family:Aldrich;-inkscape-font-specification:Aldrich"
       inkscape:connector-curvature="0"
       d="m 204.97672,300.68131 0,4.47258 -1.00993,0 0,-5.48767 1.00993,0 0,0.96872 c 0.007,-0.13397 0.0378,-0.25935 0.0927,-0.37616 0.0549,-0.12022 0.1271,-0.22328 0.21641,-0.30916 0.0927,-0.0893 0.19924,-0.15801 0.31947,-0.2061 0.12023,-0.0515 0.24905,-0.0773 0.38646,-0.0773 l 1.07692,0 c 0.14084,10e-6 0.27137,0.0275 0.39161,0.0824 0.12366,0.0515 0.23187,0.12367 0.32462,0.21642 0.0927,0.0893 0.16488,0.19581 0.21641,0.31947 0.0549,0.12367 0.0824,0.25592 0.0824,0.39676 l 0,0.92749 -1.01509,0 0,-0.92749 -2.09201,0"
       id="path3842" />
    <path
       style="font-size:14.62205696px;font-style:normal;font-variant:normal;font-weight:normal;font-stretch:normal;text-align:start;line-height:100%;letter-spacing:0px;word-spacing:0px;writing-mode:lr-tb;text-anchor:start;fill:#919191;fill-opacity:1;stroke:none;font-family:Aldrich;-inkscape-font-specification:Aldrich"
       inkscape:connector-curvature="0"
       d="m 209.34624,302.75787 c 0,-0.14084 0.0258,-0.27138 0.0773,-0.39162 0.0549,-0.12366 0.1271,-0.23186 0.21641,-0.32462 0.0927,-0.0927 0.20096,-0.16488 0.32463,-0.21642 0.12366,-0.055 0.25419,-0.0824 0.39161,-0.0824 l 2.61758,0 0,-1.06146 -3.31321,0 0,-1.01509 3.31321,0 c 0.14084,10e-6 0.27309,0.0275 0.39676,0.0824 0.12366,0.0515 0.23016,0.12367 0.31947,0.21642 0.0927,0.0893 0.16488,0.19581 0.21641,0.31947 0.0549,0.12367 0.0824,0.25592 0.0825,0.39676 l 0,4.47258 -1.01509,0 0,-0.9275 c -0.0103,0.12711 -0.0447,0.24733 -0.10305,0.36069 -0.0584,0.11336 -0.13398,0.21298 -0.22672,0.29886 -0.0893,0.0824 -0.19237,0.14771 -0.30917,0.19581 -0.11679,0.0481 -0.24046,0.0722 -0.37099,0.0722 l -1.60765,0 c -0.13742,0 -0.26795,-0.0258 -0.39161,-0.0773 -0.12367,-0.055 -0.23188,-0.1271 -0.32463,-0.21642 -0.0893,-0.0927 -0.16145,-0.20095 -0.21641,-0.32462 -0.0515,-0.12366 -0.0773,-0.25591 -0.0773,-0.39676 l 0,-1.38093 m 1.00994,1.38093 2.61758,0 0,-1.38093 -2.61758,0 0,1.38093"
       id="path3844" />
    <path
       style="font-size:14.62205696px;font-style:normal;font-variant:normal;font-weight:normal;font-stretch:normal;text-align:start;line-height:100%;letter-spacing:0px;word-spacing:0px;writing-mode:lr-tb;text-anchor:start;fill:#919191;fill-opacity:1;stroke:none;font-family:Aldrich;-inkscape-font-specification:Aldrich"
       inkscape:connector-curvature="0"
       d="m 216.68373,297.5536 0,7.60029 -1.00993,0 0,-7.60029 1.00993,0"
       id="path3846" />
    <path
       style="font-size:14.62205696px;font-style:normal;font-variant:normal;font-weight:normal;font-stretch:normal;text-align:start;line-height:100%;letter-spacing:0px;word-spacing:0px;writing-mode:lr-tb;text-anchor:start;fill:#919191;fill-opacity:1;stroke:none;font-family:Aldrich;-inkscape-font-specification:Aldrich"
       inkscape:connector-curvature="0"
       d="m 182.84573,313.4807 -3.63268,0 0,1.2109 3.63268,0 0,1.01508 -3.63268,0 c -0.1374,0 -0.26794,-0.0258 -0.3916,-0.0773 -0.12367,-0.055 -0.23188,-0.1271 -0.32463,-0.21641 -0.0893,-0.0928 -0.16145,-0.20096 -0.21641,-0.32463 -0.0515,-0.12366 -0.0773,-0.25591 -0.0773,-0.39675 l 0,-3.45749 c 0,-0.14084 0.0258,-0.27309 0.0773,-0.39676 0.055,-0.12366 0.1271,-0.23015 0.21641,-0.31947 0.0927,-0.0927 0.20096,-0.16488 0.32463,-0.21642 0.12366,-0.0549 0.2542,-0.0824 0.3916,-0.0824 l 2.61759,0 c 0.14084,0 0.2731,0.0275 0.39677,0.0824 0.12365,0.0515 0.23014,0.12367 0.31947,0.21642 0.0927,0.0893 0.16488,0.19581 0.21641,0.31947 0.055,0.12367 0.0824,0.25592 0.0824,0.39676 l 0,2.24659 m -3.63268,-2.24659 0,1.23151 2.61759,0 0,-1.23151 -2.61759,0"
       id="path3848" />
    <path
       style="font-size:14.62205696px;font-style:normal;font-variant:normal;font-weight:normal;font-stretch:normal;text-align:start;line-height:100%;letter-spacing:0px;word-spacing:0px;writing-mode:lr-tb;text-anchor:start;fill:#ff8123;fill-opacity:1;stroke:none;font-family:Aldrich;-inkscape-font-specification:Aldrich"
       inkscape:connector-curvature="0"
       d="m 189.31241,310.21902 -1.9941,2.67942 2.08685,2.80824 -1.22635,0 -1.47368,-1.9838 -1.47883,1.9838 -1.22636,0 2.09201,-2.80824 -1.9941,-2.67942 1.22119,0 1.38609,1.85498 1.38093,-1.85498 1.22635,0"
       id="path3850" />
    <path
       style="font-size:14.62205696px;font-style:normal;font-variant:normal;font-weight:normal;font-stretch:normal;text-align:start;line-height:100%;letter-spacing:0px;word-spacing:0px;writing-mode:lr-tb;text-anchor:start;fill:#919191;fill-opacity:1;stroke:none;font-family:Aldrich;-inkscape-font-specification:Aldrich"
       inkscape:connector-curvature="0"
       d="m 190.25021,310.21902 1.33971,0 0,-1.6901 1.01509,0 0,1.6901 1.80346,0 0,1.01509 -1.80346,0 0,3.45749 1.80346,0 0,1.01508 -1.80346,0 c -0.13741,0 -0.26794,-0.0258 -0.39161,-0.0773 -0.12367,-0.055 -0.23187,-0.1271 -0.32462,-0.21641 -0.0927,-0.0928 -0.16661,-0.20096 -0.22157,-0.32463 -0.0515,-0.12366 -0.0773,-0.25591 -0.0773,-0.39675 l 0,-3.45749 -1.33971,0 0,-1.01509"
       id="path3852" />
    <path
       style="font-size:14.62205696px;font-style:normal;font-variant:normal;font-weight:normal;font-stretch:normal;text-align:start;line-height:100%;letter-spacing:0px;word-spacing:0px;writing-mode:lr-tb;text-anchor:start;fill:#919191;fill-opacity:1;stroke:none;font-family:Aldrich;-inkscape-font-specification:Aldrich"
       inkscape:connector-curvature="0"
       d="m 197.10334,311.23411 0,4.47257 -1.00993,0 0,-5.48766 1.00993,0 0,0.96872 c 0.007,-0.13397 0.0378,-0.25935 0.0927,-0.37615 0.055,-0.12023 0.1271,-0.22329 0.21642,-0.30917 0.0927,-0.0893 0.19924,-0.15801 0.31947,-0.20611 0.12023,-0.0515 0.24904,-0.0773 0.38646,-0.0773 l 1.07691,0 c 0.14084,0 0.27138,0.0275 0.39161,0.0824 0.12366,0.0515 0.23187,0.12367 0.32462,0.21642 0.0928,0.0893 0.16489,0.19581 0.21642,0.31947 0.055,0.12367 0.0824,0.25592 0.0825,0.39676 l 0,0.92749 -1.0151,0 0,-0.92749 -2.09201,0"
       id="path3854" />
    <path
       style="font-size:14.62205696px;font-style:normal;font-variant:normal;font-weight:normal;font-stretch:normal;text-align:start;line-height:100%;letter-spacing:0px;word-spacing:0px;writing-mode:lr-tb;text-anchor:start;fill:#919191;fill-opacity:1;stroke:none;font-family:Aldrich;-inkscape-font-specification:Aldrich"
       inkscape:connector-curvature="0"
       d="m 201.47287,313.31066 c 0,-0.14083 0.0258,-0.27138 0.0773,-0.39161 0.055,-0.12366 0.1271,-0.23186 0.21642,-0.32462 0.0927,-0.0927 0.20095,-0.16489 0.32462,-0.21642 0.12367,-0.0549 0.2542,-0.0824 0.39161,-0.0824 l 2.61759,0 0,-1.06146 -3.31321,0 0,-1.01509 3.31321,0 c 0.14083,0 0.27309,0.0275 0.39675,0.0824 0.12367,0.0515 0.23016,0.12367 0.31947,0.21642 0.0927,0.0893 0.16489,0.19581 0.21642,0.31947 0.055,0.12367 0.0824,0.25592 0.0824,0.39676 l 0,4.47257 -1.01509,0 0,-0.92749 c -0.0103,0.1271 -0.0447,0.24733 -0.10305,0.36069 -0.0584,0.11336 -0.13398,0.21298 -0.22673,0.29886 -0.0893,0.0824 -0.19237,0.14771 -0.30916,0.19581 -0.1168,0.0481 -0.24047,0.0721 -0.371,0.0721 l -1.60765,0 c -0.13741,0 -0.26794,-0.0258 -0.39161,-0.0773 -0.12367,-0.055 -0.23187,-0.1271 -0.32462,-0.21642 -0.0893,-0.0927 -0.16145,-0.20096 -0.21642,-0.32462 -0.0515,-0.12367 -0.0773,-0.25592 -0.0773,-0.39676 l 0,-1.38094 m 1.00993,1.38094 2.61759,0 0,-1.38094 -2.61759,0 0,1.38094"
       id="path3856" />
  </g>
</svg>
